<?xml version="1.0" encoding="UTF-8" standalone="no"?>
<svg width="318px" height="80px" viewBox="0 0 318 80" version="1.1" xmlns="http://www.w3.org/2000/svg" xmlns:xlink="http://www.w3.org/1999/xlink" xmlns:sketch="http://www.bohemiancoding.com/sketch/ns">
    <title>libres</title>
    <description>Created with Sketch (http://www.bohemiancoding.com/sketch)</description>
    <defs></defs>
    <g id="Page-1" stroke="none" stroke-width="1" fill="none" fill-rule="evenodd" sketch:type="MSPage">
        <path d="M61.8197848,7.30387778 L61.8197848,0 L50.0937529,0 L50.0937529,7.30387778 L23.8959052,7.30387778 L23.8959052,0 L12.1698733,0 L12.1698733,7.30387778 L0,7.30387778 L0,77 L52.9420945,77 L74,56.0953556 L74,7.30387778 L61.8197848,7.30387778 L61.8197848,7.30387778 Z M52,3 L58,3 L58,16 L52,16 L52,3 L52,3 Z M14,3 L20,3 L20,16 L14,16 L14,3 L14,3 Z M50.6752491,53.845493 L50.6752491,73 L4,73 L4,30 L70,30 L70,53.845493 L50.6752491,53.845493 L50.6752491,53.845493 Z" id="Shape" fill="#D4D4D4" sketch:type="MSShapeGroup"></path>
        <path d="M224.16,78 L224.16,70.896 L214.08,69.936 L214.08,43.824 C217.92,40.464 222.912,38.64 227.712,38.64 C228.48,38.64 231.168,38.832 232.032,38.928 L232.032,29.136 C231.072,29.04 229.824,28.944 228.96,28.944 C222.72,28.944 216.768,32.88 213.984,37.68 L213.696,28.944 C207.552,29.04 199.2,30.48 194.88,31.92 L194.88,38.832 L203.904,38.832 L203.904,70.032 L195.456,70.896 L195.456,78 L224.16,78 Z M276.277173,72.528 L272.725173,65.616 C268.021173,68.688 263.029173,70.704 256.501173,70.704 C248.725173,70.704 243.925173,65.904 243.061173,58.608 C242.965173,57.648 242.965173,55.92 242.965173,55.248 L275.221173,55.248 C275.413173,53.712 275.509173,52.08 275.509173,51.216 C275.509173,39.504 271.957173,28.656 255.829173,28.656 C243.349173,28.656 232.309173,36.912 232.309173,54.768 C232.309173,69.36 240.277173,79.44 254.293173,79.44 C263.029173,79.44 269.557173,76.944 276.277173,72.528 Z M265.333173,47.76 L243.349173,47.76 C244.405173,40.272 249.589173,36.528 255.637173,36.528 C262.933173,36.528 265.429173,40.752 265.429173,45.744 C265.429173,46.416 265.429173,47.088 265.333173,47.76 Z M280.530345,62.064 C280.530345,69.264 280.818345,74.064 281.490345,76.848 C286.386345,78.48 292.434345,79.44 298.386345,79.44 C311.730345,79.44 317.874345,72.144 317.874345,64.272 C317.874345,57.936 315.186345,52.944 306.162345,50.448 L298.386345,48.336 C293.970345,47.088 292.818345,44.976 292.818345,42.288 C292.818345,39.408 294.930345,36.432 300.978345,36.432 C302.802345,36.432 305.490345,36.528 308.082345,37.2 L309.522345,44.976 L316.530345,44.976 C316.530345,39.984 316.338345,33.072 315.570345,30.288 C311.730345,29.232 306.642345,28.656 301.554345,28.656 C288.306345,28.656 282.066345,35.376 282.066345,42.96 C282.066345,50.832 285.810345,54.864 293.202345,57.072 L300.402345,59.184 C305.298345,60.624 306.642345,62.352 306.642345,65.424 C306.642345,68.688 304.050345,71.376 298.194345,71.376 C295.410345,71.376 291.858345,70.704 289.170345,69.744 L287.634345,62.064 L280.530345,62.064 Z" id="res" fill="#9F8D8D" sketch:type="MSShapeGroup"></path>
        <path d="M111.472,78 L111.472,70.896 L103.024,70.032 L103.024,6.96 C97.168,6.96 90.256,8.208 83.824,10.032 L83.824,16.944 L92.752,16.944 L92.752,70.032 L84.592,70.896 L84.592,78 L111.472,78 Z M134.605173,15.984 C134.605173,11.088 132.013173,9.552 128.461173,9.552 C125.197173,9.552 122.221173,11.376 122.221173,15.984 C122.221173,20.688 125.197173,22.32 128.365173,22.32 C132.013173,22.32 134.605173,20.304 134.605173,15.984 Z M143.533173,78 L143.533173,70.896 L135.085173,70.032 L135.085173,28.944 C129.229173,28.944 121.933173,30.192 115.885173,31.824 L115.885173,38.832 L124.909173,38.832 L124.909173,70.032 L116.461173,70.896 L116.461173,78 L143.533173,78 Z M147.898345,76.176 C154.330345,78.192 160.474345,79.344 167.866345,79.344 C182.458345,79.344 191.386345,70.8 191.386345,52.368 C191.386345,36.816 185.818345,29.04 175.450345,29.04 C168.922345,29.04 162.202345,32.688 158.074345,35.856 L158.074345,6.96 C152.794345,6.96 145.018345,8.4 138.970345,10.032 L138.970345,16.944 L147.898345,16.944 L147.898345,76.176 Z M158.074345,69.456 L158.074345,42.192 C162.202345,39.984 166.426345,38.16 171.034345,38.16 C177.466345,38.16 180.250345,44.016 180.250345,53.712 C180.250345,64.944 176.218345,70.8 167.386345,70.8 C163.930345,70.8 160.954345,70.32 158.074345,69.456 Z" id="lib" fill="#FC5E62" sketch:type="MSShapeGroup"></path>
    </g>
</svg>